<?xml version="1.0" encoding="UTF-8" standalone="no"?><!DOCTYPE svg PUBLIC "-//W3C//DTD SVG 1.1//EN" "http://www.w3.org/Graphics/SVG/1.1/DTD/svg11.dtd"><svg width="100%" height="100%" viewBox="0 0 2057 2057" version="1.1" xmlns="http://www.w3.org/2000/svg" xmlns:xlink="http://www.w3.org/1999/xlink" xml:space="preserve" xmlns:serif="http://www.serif.com/" style="fill-rule:evenodd;clip-rule:evenodd;stroke-linejoin:round;stroke-miterlimit:2;"><g><path d="M26.3,941.587c-0,-72.354 58.329,-131.325 131.325,-131.325l1088.53,0l-461.871,-461.866c-51,-51 -51,-134.196 0,-186.15l123.992,-123.996c51,-51 134.196,-51 186.15,0l897.283,897.279c25.5,25.5 38.567,58.971 38.567,92.758c0,33.467 -13.067,67.259 -38.567,92.759l-897.283,897.283c-51,50.996 -134.196,50.996 -186.15,0l-123.992,-123.996c-51,-51 -51,-134.196 0,-186.15l461.871,-460.275l-1087.89,0c-72.359,0 -131.33,-58.971 -131.33,-131.329l-0.637,-174.992Z" style="fill-rule:nonzero;"/></g></svg>